<svg xmlns="http://www.w3.org/2000/svg" viewBox="0 0 64 64" fill="none">
  <defs>
    <linearGradient id="seobaike-gradient" x1="0%" y1="0%" x2="100%" y2="100%">
      <stop offset="0%" style="stop-color:#667eea"/>
      <stop offset="100%" style="stop-color:#764ba2"/>
    </linearGradient>
  </defs>
  <!-- Background circle -->
  <circle cx="32" cy="32" r="30" fill="url(#seobaike-gradient)"/>
  <!-- Stylized "S" letter -->
  <path 
    d="M42 22c0-5.5-4.5-10-10-10H24c-1.1 0-2 .9-2 2s.9 2 2 2h8c3.3 0 6 2.7 6 6s-2.7 6-6 6H24c-5.5 0-10 4.5-10 10s4.5 10 10 10h8c1.1 0 2-.9 2-2s-.9-2-2-2h-8c-3.3 0-6-2.7-6-6s2.7-6 6-6h8c5.5 0 10-4.5 10-10z" 
    fill="white"
  />
  <!-- Tech accent dots -->
  <circle cx="48" cy="16" r="3" fill="white" opacity="0.6"/>
  <circle cx="16" cy="48" r="3" fill="white" opacity="0.6"/>
</svg>